<svg width="57" height="59" viewBox="0 0 57 59" fill="none" xmlns="http://www.w3.org/2000/svg">
<path d="M35.4675 10.8251C35.4184 10.8022 35.3627 10.7941 35.3084 10.802C35.2541 10.8099 35.2038 10.8334 35.1645 10.8691L31.9819 13.7763L28.4647 8.11111C28.439 8.07682 28.4047 8.0488 28.3648 8.02945C28.3249 8.0101 28.2805 8 28.2355 8C28.1905 8 28.1461 8.0101 28.1062 8.02945C28.0663 8.0488 28.032 8.07682 28.0063 8.11111L24.4891 13.7763L21.3065 10.8691C21.2673 10.8322 21.2165 10.8077 21.1614 10.7994C21.1062 10.791 21.0497 10.7991 20.9998 10.8225C20.95 10.8459 20.9094 10.8834 20.8841 10.9296C20.8587 10.9757 20.8498 11.0282 20.8586 11.0794L21.9125 17.6321C21.922 17.6904 21.9539 17.7435 22.0023 17.7817C22.0507 17.8199 22.1124 17.8406 22.1759 17.8399H34.2951C34.3586 17.8406 34.4203 17.8199 34.4687 17.7817C34.5171 17.7435 34.549 17.6904 34.5586 17.6321L35.6124 11.0794C35.6203 11.0282 35.6105 10.9761 35.5845 10.9304C35.5585 10.8847 35.5175 10.8478 35.4675 10.8251Z" fill="#B6D64F"/>
<path d="M8 17.8398H15.1741L21.7996 37.3367L20.829 36.9147L26.0579 23.8995L29.4379 30.9221L20.4914 50.1236L8 17.8398ZM26.0579 23.8995H31.7425L37.2872 36.7037L36.19 36.5349L41.8871 17.8398H48.4704L36.4854 50.0392L26.0579 23.8995Z" fill="#E9E9E9"/>
</svg>
