<svg width="37" height="24" viewBox="0 0 37 24" fill="none" xmlns="http://www.w3.org/2000/svg">
<g clip-path="url(#clip0_3001_201)">
<path d="M0.626953 1.84729H36.627V3.6943H0.626953V1.84729Z" fill="#E9E9E9"/>
<path d="M0.626953 0.000244141H36.627V1.84725H0.626953V0.000244141Z" fill="#FF4B1E"/>
<path d="M0.626953 5.54126H36.627V7.38827H0.626953V5.54126Z" fill="#E9E9E9"/>
<path d="M0.626953 3.69421H36.627V5.54122H0.626953V3.69421Z" fill="#FF4B1E"/>
<path d="M0.611816 9.21936H36.6478V11.0652H0.611816V9.21936Z" fill="#E9E9E9"/>
<path d="M0.611816 7.37354H36.6478V9.21938H0.611816V7.37354Z" fill="#FF4B1E"/>
<path d="M0.626953 12.9293H36.627V14.7763H0.626953V12.9293Z" fill="#E9E9E9"/>
<path d="M0.626953 11.0823H36.627V12.9293H0.626953V11.0823Z" fill="#FF4B1E"/>
<path d="M0.611816 14.7616H36.6478V16.6074H0.611816V14.7616Z" fill="#FF4B1E"/>
<path d="M0.611816 16.6028H36.6478V18.4486H0.611816V16.6028Z" fill="#E9E9E9"/>
<path d="M0.611816 18.4486H36.6478V20.2945H0.611816V18.4486Z" fill="#FF4B1E"/>
<path d="M0.626953 0.000244141H17.0475V12.9352H0.626953V0.000244141Z" fill="#273257"/>
<path d="M1.86446 1.13679L2.21654 1.4213L1.64671 1.88142L1.86446 1.13679Z" fill="#E9E9E9"/>
<path d="M2.10789 1.04883L1.97339 1.50904L1.40367 1.04882L2.10789 1.04883Z" fill="#E9E9E9"/>
<path d="M2.2585 1.27898H1.82324L2.04087 0.534302L2.2585 1.27898Z" fill="#E9E9E9"/>
<path d="M2.10788 1.50904L1.97339 1.04883L2.6776 1.04883L2.10788 1.50904Z" fill="#E9E9E9"/>
<path d="M1.86448 1.42127L2.21656 1.13676L2.43431 1.88139L1.86448 1.42127Z" fill="#E9E9E9"/>
<path d="M4.58663 1.13679L4.93871 1.4213L4.36888 1.88142L4.58663 1.13679Z" fill="#E9E9E9"/>
<path d="M4.83005 1.04883L4.69556 1.50904L4.12584 1.04882L4.83005 1.04883Z" fill="#E9E9E9"/>
<path d="M4.98066 1.27898H4.54541L4.76304 0.534302L4.98066 1.27898Z" fill="#E9E9E9"/>
<path d="M4.83005 1.50904L4.69555 1.04883L5.39977 1.04883L4.83005 1.50904Z" fill="#E9E9E9"/>
<path d="M4.58665 1.42127L4.93873 1.13676L5.15648 1.88139L4.58665 1.42127Z" fill="#E9E9E9"/>
<path d="M7.30929 1.13679L7.66137 1.4213L7.09154 1.88142L7.30929 1.13679Z" fill="#E9E9E9"/>
<path d="M7.55271 1.04883L7.41822 1.50904L6.8485 1.04882L7.55271 1.04883Z" fill="#E9E9E9"/>
<path d="M7.70332 1.27898H7.26807L7.48569 0.534302L7.70332 1.27898Z" fill="#E9E9E9"/>
<path d="M7.5527 1.50904L7.41821 1.04883L8.12242 1.04883L7.5527 1.50904Z" fill="#E9E9E9"/>
<path d="M7.30931 1.42127L7.66139 1.13676L7.87914 1.88139L7.30931 1.42127Z" fill="#E9E9E9"/>
<path d="M10.0315 1.13679L10.3835 1.4213L9.81371 1.88142L10.0315 1.13679Z" fill="#E9E9E9"/>
<path d="M10.2749 1.04883L10.1404 1.50904L9.57066 1.04882L10.2749 1.04883Z" fill="#E9E9E9"/>
<path d="M10.4255 1.27898H9.99023L10.2079 0.534302L10.4255 1.27898Z" fill="#E9E9E9"/>
<path d="M10.2749 1.50904L10.1404 1.04883L10.8446 1.04883L10.2749 1.50904Z" fill="#E9E9E9"/>
<path d="M10.0315 1.42127L10.3836 1.13676L10.6013 1.88139L10.0315 1.42127Z" fill="#E9E9E9"/>
<path d="M12.7541 1.13679L13.1062 1.4213L12.5364 1.88142L12.7541 1.13679Z" fill="#E9E9E9"/>
<path d="M12.9975 1.04883L12.863 1.50904L12.2933 1.04882L12.9975 1.04883Z" fill="#E9E9E9"/>
<path d="M13.1481 1.27898H12.7129L12.9305 0.534302L13.1481 1.27898Z" fill="#E9E9E9"/>
<path d="M12.9975 1.50904L12.863 1.04883L13.5672 1.04883L12.9975 1.50904Z" fill="#E9E9E9"/>
<path d="M12.7541 1.42127L13.1062 1.13676L13.324 1.88139L12.7541 1.42127Z" fill="#E9E9E9"/>
<path d="M15.4763 1.13679L15.8284 1.4213L15.2585 1.88142L15.4763 1.13679Z" fill="#E9E9E9"/>
<path d="M15.7197 1.04883L15.5852 1.50904L15.0155 1.04882L15.7197 1.04883Z" fill="#E9E9E9"/>
<path d="M15.8703 1.27898H15.4351L15.6527 0.534302L15.8703 1.27898Z" fill="#E9E9E9"/>
<path d="M15.7197 1.50904L15.5852 1.04883L16.2894 1.04883L15.7197 1.50904Z" fill="#E9E9E9"/>
<path d="M15.4763 1.42127L15.8284 1.13676L16.0461 1.88139L15.4763 1.42127Z" fill="#E9E9E9"/>
<path d="M3.22579 2.43403L3.57787 2.71854L3.00804 3.17867L3.22579 2.43403Z" fill="#E9E9E9"/>
<path d="M3.46921 2.34607L3.33472 2.80628L2.765 2.34607L3.46921 2.34607Z" fill="#E9E9E9"/>
<path d="M3.61982 2.57622H3.18457L3.4022 1.83154L3.61982 2.57622Z" fill="#E9E9E9"/>
<path d="M3.46921 2.80628L3.33471 2.34607L4.03893 2.34607L3.46921 2.80628Z" fill="#E9E9E9"/>
<path d="M3.22581 2.71851L3.57789 2.434L3.79564 3.17863L3.22581 2.71851Z" fill="#E9E9E9"/>
<path d="M5.94796 2.43403L6.30004 2.71854L5.73021 3.17867L5.94796 2.43403Z" fill="#E9E9E9"/>
<path d="M6.19138 2.34607L6.05689 2.80628L5.48717 2.34607L6.19138 2.34607Z" fill="#E9E9E9"/>
<path d="M6.34199 2.57622H5.90674L6.12436 1.83154L6.34199 2.57622Z" fill="#E9E9E9"/>
<path d="M6.19137 2.80628L6.05688 2.34607L6.76109 2.34607L6.19137 2.80628Z" fill="#E9E9E9"/>
<path d="M5.94798 2.71851L6.30006 2.434L6.51781 3.17863L5.94798 2.71851Z" fill="#E9E9E9"/>
<path d="M8.67062 2.43403L9.0227 2.71854L8.45287 3.17867L8.67062 2.43403Z" fill="#E9E9E9"/>
<path d="M8.91404 2.34607L8.77954 2.80628L8.20982 2.34607L8.91404 2.34607Z" fill="#E9E9E9"/>
<path d="M9.06465 2.57622H8.62939L8.84702 1.83154L9.06465 2.57622Z" fill="#E9E9E9"/>
<path d="M8.91403 2.80628L8.77954 2.34607L9.48375 2.34607L8.91403 2.80628Z" fill="#E9E9E9"/>
<path d="M8.67063 2.71851L9.02271 2.434L9.24046 3.17863L8.67063 2.71851Z" fill="#E9E9E9"/>
<path d="M11.3928 2.43403L11.7449 2.71854L11.175 3.17867L11.3928 2.43403Z" fill="#E9E9E9"/>
<path d="M11.6362 2.34607L11.5017 2.80628L10.932 2.34607L11.6362 2.34607Z" fill="#E9E9E9"/>
<path d="M11.7868 2.57622H11.3516L11.5692 1.83154L11.7868 2.57622Z" fill="#E9E9E9"/>
<path d="M11.6362 2.80628L11.5017 2.34607L12.2059 2.34607L11.6362 2.80628Z" fill="#E9E9E9"/>
<path d="M11.3928 2.71851L11.7449 2.434L11.9626 3.17863L11.3928 2.71851Z" fill="#E9E9E9"/>
<path d="M14.1154 2.43403L14.4675 2.71854L13.8977 3.17867L14.1154 2.43403Z" fill="#E9E9E9"/>
<path d="M14.3589 2.34607L14.2244 2.80628L13.6546 2.34607L14.3589 2.34607Z" fill="#E9E9E9"/>
<path d="M14.5095 2.57622H14.0742L14.2918 1.83154L14.5095 2.57622Z" fill="#E9E9E9"/>
<path d="M14.3589 2.80628L14.2244 2.34607L14.9286 2.34607L14.3589 2.80628Z" fill="#E9E9E9"/>
<path d="M14.1155 2.71851L14.4675 2.434L14.6853 3.17863L14.1155 2.71851Z" fill="#E9E9E9"/>
<path d="M1.86446 3.73115L2.21654 4.01566L1.64671 4.47578L1.86446 3.73115Z" fill="#E9E9E9"/>
<path d="M2.10789 3.64319L1.97339 4.1034L1.40367 3.64319L2.10789 3.64319Z" fill="#E9E9E9"/>
<path d="M2.2585 3.87334H1.82324L2.04087 3.12866L2.2585 3.87334Z" fill="#E9E9E9"/>
<path d="M2.10788 4.1034L1.97339 3.64319L2.6776 3.64319L2.10788 4.1034Z" fill="#E9E9E9"/>
<path d="M1.86448 4.01563L2.21656 3.73112L2.43431 4.47575L1.86448 4.01563Z" fill="#E9E9E9"/>
<path d="M4.58663 3.73115L4.93871 4.01566L4.36888 4.47578L4.58663 3.73115Z" fill="#E9E9E9"/>
<path d="M4.83005 3.64319L4.69556 4.1034L4.12584 3.64319L4.83005 3.64319Z" fill="#E9E9E9"/>
<path d="M4.98066 3.87334H4.54541L4.76304 3.12866L4.98066 3.87334Z" fill="#E9E9E9"/>
<path d="M4.83005 4.1034L4.69555 3.64319L5.39977 3.64319L4.83005 4.1034Z" fill="#E9E9E9"/>
<path d="M4.58665 4.01563L4.93873 3.73112L5.15648 4.47575L4.58665 4.01563Z" fill="#E9E9E9"/>
<path d="M7.30929 3.73115L7.66137 4.01566L7.09154 4.47578L7.30929 3.73115Z" fill="#E9E9E9"/>
<path d="M7.55271 3.64319L7.41822 4.1034L6.8485 3.64319L7.55271 3.64319Z" fill="#E9E9E9"/>
<path d="M7.70332 3.87334H7.26807L7.48569 3.12866L7.70332 3.87334Z" fill="#E9E9E9"/>
<path d="M7.5527 4.1034L7.41821 3.64319L8.12242 3.64319L7.5527 4.1034Z" fill="#E9E9E9"/>
<path d="M7.30931 4.01563L7.66139 3.73112L7.87914 4.47575L7.30931 4.01563Z" fill="#E9E9E9"/>
<path d="M10.0315 3.73115L10.3835 4.01566L9.81371 4.47578L10.0315 3.73115Z" fill="#E9E9E9"/>
<path d="M10.2749 3.64319L10.1404 4.1034L9.57066 3.64319L10.2749 3.64319Z" fill="#E9E9E9"/>
<path d="M10.4255 3.87334H9.99023L10.2079 3.12866L10.4255 3.87334Z" fill="#E9E9E9"/>
<path d="M10.2749 4.1034L10.1404 3.64319L10.8446 3.64319L10.2749 4.1034Z" fill="#E9E9E9"/>
<path d="M10.0315 4.01563L10.3836 3.73112L10.6013 4.47575L10.0315 4.01563Z" fill="#E9E9E9"/>
<path d="M12.7541 3.73115L13.1062 4.01566L12.5364 4.47578L12.7541 3.73115Z" fill="#E9E9E9"/>
<path d="M12.9975 3.64319L12.863 4.1034L12.2933 3.64319L12.9975 3.64319Z" fill="#E9E9E9"/>
<path d="M13.1481 3.87334H12.7129L12.9305 3.12866L13.1481 3.87334Z" fill="#E9E9E9"/>
<path d="M12.9975 4.1034L12.863 3.64319L13.5672 3.64319L12.9975 4.1034Z" fill="#E9E9E9"/>
<path d="M12.7541 4.01563L13.1062 3.73112L13.324 4.47575L12.7541 4.01563Z" fill="#E9E9E9"/>
<path d="M15.4763 3.73115L15.8284 4.01566L15.2585 4.47578L15.4763 3.73115Z" fill="#E9E9E9"/>
<path d="M15.7197 3.64319L15.5852 4.1034L15.0155 3.64319L15.7197 3.64319Z" fill="#E9E9E9"/>
<path d="M15.8703 3.87334H15.4351L15.6527 3.12866L15.8703 3.87334Z" fill="#E9E9E9"/>
<path d="M15.7197 4.1034L15.5852 3.64319L16.2894 3.64319L15.7197 4.1034Z" fill="#E9E9E9"/>
<path d="M15.4763 4.01563L15.8284 3.73112L16.0461 4.47575L15.4763 4.01563Z" fill="#E9E9E9"/>
<path d="M3.22579 5.02839L3.57787 5.3129L3.00804 5.77303L3.22579 5.02839Z" fill="#E9E9E9"/>
<path d="M3.46921 4.94043L3.33472 5.40064L2.765 4.94043L3.46921 4.94043Z" fill="#E9E9E9"/>
<path d="M3.61982 5.17059H3.18457L3.4022 4.4259L3.61982 5.17059Z" fill="#E9E9E9"/>
<path d="M3.46921 5.40065L3.33471 4.94043L4.03893 4.94043L3.46921 5.40065Z" fill="#E9E9E9"/>
<path d="M3.22581 5.31287L3.57789 5.02836L3.79564 5.77299L3.22581 5.31287Z" fill="#E9E9E9"/>
<path d="M5.94796 5.02839L6.30004 5.3129L5.73021 5.77303L5.94796 5.02839Z" fill="#E9E9E9"/>
<path d="M6.19138 4.94043L6.05689 5.40064L5.48717 4.94043L6.19138 4.94043Z" fill="#E9E9E9"/>
<path d="M6.34199 5.17059H5.90674L6.12436 4.4259L6.34199 5.17059Z" fill="#E9E9E9"/>
<path d="M6.19137 5.40065L6.05688 4.94043L6.76109 4.94043L6.19137 5.40065Z" fill="#E9E9E9"/>
<path d="M5.94798 5.31287L6.30006 5.02836L6.51781 5.77299L5.94798 5.31287Z" fill="#E9E9E9"/>
<path d="M8.67062 5.02839L9.0227 5.3129L8.45287 5.77303L8.67062 5.02839Z" fill="#E9E9E9"/>
<path d="M8.91404 4.94043L8.77954 5.40064L8.20982 4.94043L8.91404 4.94043Z" fill="#E9E9E9"/>
<path d="M9.06465 5.17059H8.62939L8.84702 4.4259L9.06465 5.17059Z" fill="#E9E9E9"/>
<path d="M8.91403 5.40065L8.77954 4.94043L9.48375 4.94043L8.91403 5.40065Z" fill="#E9E9E9"/>
<path d="M8.67063 5.31287L9.02271 5.02836L9.24046 5.77299L8.67063 5.31287Z" fill="#E9E9E9"/>
<path d="M11.3928 5.02839L11.7449 5.3129L11.175 5.77303L11.3928 5.02839Z" fill="#E9E9E9"/>
<path d="M11.6362 4.94043L11.5017 5.40064L10.932 4.94043L11.6362 4.94043Z" fill="#E9E9E9"/>
<path d="M11.7868 5.17059H11.3516L11.5692 4.4259L11.7868 5.17059Z" fill="#E9E9E9"/>
<path d="M11.6362 5.40065L11.5017 4.94043L12.2059 4.94043L11.6362 5.40065Z" fill="#E9E9E9"/>
<path d="M11.3928 5.31287L11.7449 5.02836L11.9626 5.77299L11.3928 5.31287Z" fill="#E9E9E9"/>
<path d="M14.1154 5.02839L14.4675 5.3129L13.8977 5.77303L14.1154 5.02839Z" fill="#E9E9E9"/>
<path d="M14.3589 4.94043L14.2244 5.40064L13.6546 4.94043L14.3589 4.94043Z" fill="#E9E9E9"/>
<path d="M14.5095 5.17059H14.0742L14.2918 4.4259L14.5095 5.17059Z" fill="#E9E9E9"/>
<path d="M14.3589 5.40065L14.2244 4.94043L14.9286 4.94043L14.3589 5.40065Z" fill="#E9E9E9"/>
<path d="M14.1155 5.31287L14.4675 5.02836L14.6853 5.77299L14.1155 5.31287Z" fill="#E9E9E9"/>
<path d="M1.86446 6.32551L2.21654 6.61002L1.64671 7.07014L1.86446 6.32551Z" fill="#E9E9E9"/>
<path d="M2.10789 6.23755L1.97339 6.69776L1.40367 6.23755L2.10789 6.23755Z" fill="#E9E9E9"/>
<path d="M2.2585 6.4677H1.82324L2.04087 5.72302L2.2585 6.4677Z" fill="#E9E9E9"/>
<path d="M2.10788 6.69776L1.97339 6.23755L2.6776 6.23755L2.10788 6.69776Z" fill="#E9E9E9"/>
<path d="M1.86448 6.60999L2.21656 6.32548L2.43431 7.07011L1.86448 6.60999Z" fill="#E9E9E9"/>
<path d="M4.58663 6.32551L4.93871 6.61002L4.36888 7.07014L4.58663 6.32551Z" fill="#E9E9E9"/>
<path d="M4.83005 6.23755L4.69556 6.69776L4.12584 6.23755L4.83005 6.23755Z" fill="#E9E9E9"/>
<path d="M4.98066 6.4677H4.54541L4.76304 5.72302L4.98066 6.4677Z" fill="#E9E9E9"/>
<path d="M4.83005 6.69776L4.69555 6.23755L5.39977 6.23755L4.83005 6.69776Z" fill="#E9E9E9"/>
<path d="M4.58665 6.60999L4.93873 6.32548L5.15648 7.07011L4.58665 6.60999Z" fill="#E9E9E9"/>
<path d="M7.30929 6.32551L7.66137 6.61002L7.09154 7.07014L7.30929 6.32551Z" fill="#E9E9E9"/>
<path d="M7.55271 6.23755L7.41822 6.69776L6.8485 6.23755L7.55271 6.23755Z" fill="#E9E9E9"/>
<path d="M7.70332 6.4677H7.26807L7.48569 5.72302L7.70332 6.4677Z" fill="#E9E9E9"/>
<path d="M7.5527 6.69776L7.41821 6.23755L8.12242 6.23755L7.5527 6.69776Z" fill="#E9E9E9"/>
<path d="M7.30931 6.60999L7.66139 6.32548L7.87914 7.07011L7.30931 6.60999Z" fill="#E9E9E9"/>
<path d="M10.0315 6.32551L10.3835 6.61002L9.81371 7.07014L10.0315 6.32551Z" fill="#E9E9E9"/>
<path d="M10.2749 6.23755L10.1404 6.69776L9.57066 6.23755L10.2749 6.23755Z" fill="#E9E9E9"/>
<path d="M10.4255 6.4677H9.99023L10.2079 5.72302L10.4255 6.4677Z" fill="#E9E9E9"/>
<path d="M10.2749 6.69776L10.1404 6.23755L10.8446 6.23755L10.2749 6.69776Z" fill="#E9E9E9"/>
<path d="M10.0315 6.60999L10.3836 6.32548L10.6013 7.07011L10.0315 6.60999Z" fill="#E9E9E9"/>
<path d="M12.7541 6.32551L13.1062 6.61002L12.5364 7.07014L12.7541 6.32551Z" fill="#E9E9E9"/>
<path d="M12.9975 6.23755L12.863 6.69776L12.2933 6.23755L12.9975 6.23755Z" fill="#E9E9E9"/>
<path d="M13.1481 6.4677H12.7129L12.9305 5.72302L13.1481 6.4677Z" fill="#E9E9E9"/>
<path d="M12.9975 6.69776L12.863 6.23755L13.5672 6.23755L12.9975 6.69776Z" fill="#E9E9E9"/>
<path d="M12.7541 6.60999L13.1062 6.32548L13.324 7.07011L12.7541 6.60999Z" fill="#E9E9E9"/>
<path d="M15.4763 6.32551L15.8284 6.61002L15.2585 7.07014L15.4763 6.32551Z" fill="#E9E9E9"/>
<path d="M15.7197 6.23755L15.5852 6.69776L15.0155 6.23755L15.7197 6.23755Z" fill="#E9E9E9"/>
<path d="M15.8703 6.4677H15.4351L15.6527 5.72302L15.8703 6.4677Z" fill="#E9E9E9"/>
<path d="M15.7197 6.69776L15.5852 6.23755L16.2894 6.23755L15.7197 6.69776Z" fill="#E9E9E9"/>
<path d="M15.4763 6.60999L15.8284 6.32548L16.0461 7.07011L15.4763 6.60999Z" fill="#E9E9E9"/>
<path d="M3.22579 7.62275L3.57787 7.90726L3.00804 8.36739L3.22579 7.62275Z" fill="#E9E9E9"/>
<path d="M3.46921 7.53479L3.33472 7.995L2.765 7.53479L3.46921 7.53479Z" fill="#E9E9E9"/>
<path d="M3.61982 7.76495H3.18457L3.4022 7.02026L3.61982 7.76495Z" fill="#E9E9E9"/>
<path d="M3.46921 7.99501L3.33471 7.53479L4.03893 7.53479L3.46921 7.99501Z" fill="#E9E9E9"/>
<path d="M3.22581 7.90723L3.57789 7.62272L3.79564 8.36736L3.22581 7.90723Z" fill="#E9E9E9"/>
<path d="M5.94796 7.62275L6.30004 7.90726L5.73021 8.36739L5.94796 7.62275Z" fill="#E9E9E9"/>
<path d="M6.19138 7.53479L6.05689 7.995L5.48717 7.53479L6.19138 7.53479Z" fill="#E9E9E9"/>
<path d="M6.34199 7.76495H5.90674L6.12436 7.02026L6.34199 7.76495Z" fill="#E9E9E9"/>
<path d="M6.19137 7.99501L6.05688 7.53479L6.76109 7.53479L6.19137 7.99501Z" fill="#E9E9E9"/>
<path d="M5.94798 7.90723L6.30006 7.62272L6.51781 8.36736L5.94798 7.90723Z" fill="#E9E9E9"/>
<path d="M8.67062 7.62275L9.0227 7.90726L8.45287 8.36739L8.67062 7.62275Z" fill="#E9E9E9"/>
<path d="M8.91404 7.53479L8.77954 7.995L8.20982 7.53479L8.91404 7.53479Z" fill="#E9E9E9"/>
<path d="M9.06465 7.76495H8.62939L8.84702 7.02026L9.06465 7.76495Z" fill="#E9E9E9"/>
<path d="M8.91403 7.99501L8.77954 7.53479L9.48375 7.53479L8.91403 7.99501Z" fill="#E9E9E9"/>
<path d="M8.67063 7.90723L9.02271 7.62272L9.24046 8.36736L8.67063 7.90723Z" fill="#E9E9E9"/>
<path d="M11.3928 7.62275L11.7449 7.90726L11.175 8.36739L11.3928 7.62275Z" fill="#E9E9E9"/>
<path d="M11.6362 7.53479L11.5017 7.995L10.932 7.53479L11.6362 7.53479Z" fill="#E9E9E9"/>
<path d="M11.7868 7.76495H11.3516L11.5692 7.02026L11.7868 7.76495Z" fill="#E9E9E9"/>
<path d="M11.6362 7.99501L11.5017 7.53479L12.2059 7.53479L11.6362 7.99501Z" fill="#E9E9E9"/>
<path d="M11.3928 7.90723L11.7449 7.62272L11.9626 8.36736L11.3928 7.90723Z" fill="#E9E9E9"/>
<path d="M14.1154 7.62275L14.4675 7.90726L13.8977 8.36739L14.1154 7.62275Z" fill="#E9E9E9"/>
<path d="M14.3589 7.53479L14.2244 7.995L13.6546 7.53479L14.3589 7.53479Z" fill="#E9E9E9"/>
<path d="M14.5095 7.76495H14.0742L14.2918 7.02026L14.5095 7.76495Z" fill="#E9E9E9"/>
<path d="M14.3589 7.99501L14.2244 7.53479L14.9286 7.53479L14.3589 7.99501Z" fill="#E9E9E9"/>
<path d="M14.1155 7.90723L14.4675 7.62272L14.6853 8.36736L14.1155 7.90723Z" fill="#E9E9E9"/>
<path d="M1.86446 8.91987L2.21654 9.20438L1.64671 9.66451L1.86446 8.91987Z" fill="#E9E9E9"/>
<path d="M2.10789 8.83191L1.97339 9.29212L1.40367 8.83191L2.10789 8.83191Z" fill="#E9E9E9"/>
<path d="M2.2585 9.06206H1.82324L2.04087 8.31738L2.2585 9.06206Z" fill="#E9E9E9"/>
<path d="M2.10788 9.29212L1.97339 8.83191L2.6776 8.83191L2.10788 9.29212Z" fill="#E9E9E9"/>
<path d="M1.86448 9.20435L2.21656 8.91984L2.43431 9.66447L1.86448 9.20435Z" fill="#E9E9E9"/>
<path d="M4.58663 8.91987L4.93871 9.20438L4.36888 9.66451L4.58663 8.91987Z" fill="#E9E9E9"/>
<path d="M4.83005 8.83191L4.69556 9.29212L4.12584 8.83191L4.83005 8.83191Z" fill="#E9E9E9"/>
<path d="M4.98066 9.06206H4.54541L4.76304 8.31738L4.98066 9.06206Z" fill="#E9E9E9"/>
<path d="M4.83005 9.29212L4.69555 8.83191L5.39977 8.83191L4.83005 9.29212Z" fill="#E9E9E9"/>
<path d="M4.58665 9.20435L4.93873 8.91984L5.15648 9.66447L4.58665 9.20435Z" fill="#E9E9E9"/>
<path d="M7.30929 8.91987L7.66137 9.20438L7.09154 9.66451L7.30929 8.91987Z" fill="#E9E9E9"/>
<path d="M7.55271 8.83191L7.41822 9.29212L6.8485 8.83191L7.55271 8.83191Z" fill="#E9E9E9"/>
<path d="M7.70332 9.06206H7.26807L7.48569 8.31738L7.70332 9.06206Z" fill="#E9E9E9"/>
<path d="M7.5527 9.29212L7.41821 8.83191L8.12242 8.83191L7.5527 9.29212Z" fill="#E9E9E9"/>
<path d="M7.30931 9.20435L7.66139 8.91984L7.87914 9.66447L7.30931 9.20435Z" fill="#E9E9E9"/>
<path d="M10.0315 8.91987L10.3835 9.20438L9.81371 9.66451L10.0315 8.91987Z" fill="#E9E9E9"/>
<path d="M10.2749 8.83191L10.1404 9.29212L9.57066 8.83191L10.2749 8.83191Z" fill="#E9E9E9"/>
<path d="M10.4255 9.06206H9.99023L10.2079 8.31738L10.4255 9.06206Z" fill="#E9E9E9"/>
<path d="M10.2749 9.29212L10.1404 8.83191L10.8446 8.83191L10.2749 9.29212Z" fill="#E9E9E9"/>
<path d="M10.0315 9.20435L10.3836 8.91984L10.6013 9.66447L10.0315 9.20435Z" fill="#E9E9E9"/>
<path d="M12.7541 8.91987L13.1062 9.20438L12.5364 9.66451L12.7541 8.91987Z" fill="#E9E9E9"/>
<path d="M12.9975 8.83191L12.863 9.29212L12.2933 8.83191L12.9975 8.83191Z" fill="#E9E9E9"/>
<path d="M13.1481 9.06206H12.7129L12.9305 8.31738L13.1481 9.06206Z" fill="#E9E9E9"/>
<path d="M12.9975 9.29212L12.863 8.83191L13.5672 8.83191L12.9975 9.29212Z" fill="#E9E9E9"/>
<path d="M12.7541 9.20435L13.1062 8.91984L13.324 9.66447L12.7541 9.20435Z" fill="#E9E9E9"/>
<path d="M15.4763 8.91987L15.8284 9.20438L15.2585 9.66451L15.4763 8.91987Z" fill="#E9E9E9"/>
<path d="M15.7197 8.83191L15.5852 9.29212L15.0155 8.83191L15.7197 8.83191Z" fill="#E9E9E9"/>
<path d="M15.8703 9.06206H15.4351L15.6527 8.31738L15.8703 9.06206Z" fill="#E9E9E9"/>
<path d="M15.7197 9.29212L15.5852 8.83191L16.2894 8.83191L15.7197 9.29212Z" fill="#E9E9E9"/>
<path d="M15.4763 9.20435L15.8284 8.91984L16.0461 9.66447L15.4763 9.20435Z" fill="#E9E9E9"/>
<path d="M3.22579 10.2171L3.57787 10.5016L3.00804 10.9617L3.22579 10.2171Z" fill="#E9E9E9"/>
<path d="M3.46921 10.1291L3.33472 10.5894L2.765 10.1291L3.46921 10.1291Z" fill="#E9E9E9"/>
<path d="M3.61982 10.3593H3.18457L3.4022 9.61462L3.61982 10.3593Z" fill="#E9E9E9"/>
<path d="M3.46921 10.5894L3.33471 10.1292L4.03893 10.1292L3.46921 10.5894Z" fill="#E9E9E9"/>
<path d="M3.22581 10.5016L3.57789 10.2171L3.79564 10.9617L3.22581 10.5016Z" fill="#E9E9E9"/>
<path d="M5.94796 10.2171L6.30004 10.5016L5.73021 10.9617L5.94796 10.2171Z" fill="#E9E9E9"/>
<path d="M6.19138 10.1291L6.05689 10.5894L5.48717 10.1291L6.19138 10.1291Z" fill="#E9E9E9"/>
<path d="M6.34199 10.3593H5.90674L6.12436 9.61462L6.34199 10.3593Z" fill="#E9E9E9"/>
<path d="M6.19137 10.5894L6.05688 10.1292L6.76109 10.1292L6.19137 10.5894Z" fill="#E9E9E9"/>
<path d="M5.94798 10.5016L6.30006 10.2171L6.51781 10.9617L5.94798 10.5016Z" fill="#E9E9E9"/>
<path d="M8.67062 10.2171L9.0227 10.5016L8.45287 10.9617L8.67062 10.2171Z" fill="#E9E9E9"/>
<path d="M8.91404 10.1291L8.77954 10.5894L8.20982 10.1291L8.91404 10.1291Z" fill="#E9E9E9"/>
<path d="M9.06465 10.3593H8.62939L8.84702 9.61462L9.06465 10.3593Z" fill="#E9E9E9"/>
<path d="M8.91403 10.5894L8.77954 10.1292L9.48375 10.1292L8.91403 10.5894Z" fill="#E9E9E9"/>
<path d="M8.67063 10.5016L9.02271 10.2171L9.24046 10.9617L8.67063 10.5016Z" fill="#E9E9E9"/>
<path d="M11.3928 10.2171L11.7449 10.5016L11.175 10.9617L11.3928 10.2171Z" fill="#E9E9E9"/>
<path d="M11.6362 10.1291L11.5017 10.5894L10.932 10.1291L11.6362 10.1291Z" fill="#E9E9E9"/>
<path d="M11.7868 10.3593H11.3516L11.5692 9.61462L11.7868 10.3593Z" fill="#E9E9E9"/>
<path d="M11.6362 10.5894L11.5017 10.1292L12.2059 10.1292L11.6362 10.5894Z" fill="#E9E9E9"/>
<path d="M11.3928 10.5016L11.7449 10.2171L11.9626 10.9617L11.3928 10.5016Z" fill="#E9E9E9"/>
<path d="M14.1154 10.2171L14.4675 10.5016L13.8977 10.9617L14.1154 10.2171Z" fill="#E9E9E9"/>
<path d="M14.3589 10.1291L14.2244 10.5894L13.6546 10.1291L14.3589 10.1291Z" fill="#E9E9E9"/>
<path d="M14.5095 10.3593H14.0742L14.2918 9.61462L14.5095 10.3593Z" fill="#E9E9E9"/>
<path d="M14.3589 10.5894L14.2244 10.1292L14.9286 10.1292L14.3589 10.5894Z" fill="#E9E9E9"/>
<path d="M14.1155 10.5016L14.4675 10.2171L14.6853 10.9617L14.1155 10.5016Z" fill="#E9E9E9"/>
<path d="M1.86446 11.5144L2.21654 11.7989L1.64671 12.259L1.86446 11.5144Z" fill="#E9E9E9"/>
<path d="M2.10789 11.4264L1.97339 11.8866L1.40367 11.4264L2.10789 11.4264Z" fill="#E9E9E9"/>
<path d="M2.2585 11.6565H1.82324L2.04087 10.9119L2.2585 11.6565Z" fill="#E9E9E9"/>
<path d="M2.10788 11.8866L1.97339 11.4264L2.6776 11.4264L2.10788 11.8866Z" fill="#E9E9E9"/>
<path d="M1.86448 11.7988L2.21656 11.5143L2.43431 12.259L1.86448 11.7988Z" fill="#E9E9E9"/>
<path d="M4.58663 11.5144L4.93871 11.7989L4.36888 12.259L4.58663 11.5144Z" fill="#E9E9E9"/>
<path d="M4.83005 11.4264L4.69556 11.8866L4.12584 11.4264L4.83005 11.4264Z" fill="#E9E9E9"/>
<path d="M4.98066 11.6565H4.54541L4.76304 10.9119L4.98066 11.6565Z" fill="#E9E9E9"/>
<path d="M4.83005 11.8866L4.69555 11.4264L5.39977 11.4264L4.83005 11.8866Z" fill="#E9E9E9"/>
<path d="M4.58665 11.7988L4.93873 11.5143L5.15648 12.259L4.58665 11.7988Z" fill="#E9E9E9"/>
<path d="M7.30929 11.5144L7.66137 11.7989L7.09154 12.259L7.30929 11.5144Z" fill="#E9E9E9"/>
<path d="M7.55271 11.4264L7.41822 11.8866L6.8485 11.4264L7.55271 11.4264Z" fill="#E9E9E9"/>
<path d="M7.70332 11.6565H7.26807L7.48569 10.9119L7.70332 11.6565Z" fill="#E9E9E9"/>
<path d="M7.5527 11.8866L7.41821 11.4264L8.12242 11.4264L7.5527 11.8866Z" fill="#E9E9E9"/>
<path d="M7.30931 11.7988L7.66139 11.5143L7.87914 12.259L7.30931 11.7988Z" fill="#E9E9E9"/>
<path d="M10.0315 11.5144L10.3835 11.7989L9.81371 12.259L10.0315 11.5144Z" fill="#E9E9E9"/>
<path d="M10.2749 11.4264L10.1404 11.8866L9.57066 11.4264L10.2749 11.4264Z" fill="#E9E9E9"/>
<path d="M10.4255 11.6565H9.99023L10.2079 10.9119L10.4255 11.6565Z" fill="#E9E9E9"/>
<path d="M10.2749 11.8866L10.1404 11.4264L10.8446 11.4264L10.2749 11.8866Z" fill="#E9E9E9"/>
<path d="M10.0315 11.7988L10.3836 11.5143L10.6013 12.259L10.0315 11.7988Z" fill="#E9E9E9"/>
<path d="M12.7541 11.5144L13.1062 11.7989L12.5364 12.259L12.7541 11.5144Z" fill="#E9E9E9"/>
<path d="M12.9975 11.4264L12.863 11.8866L12.2933 11.4264L12.9975 11.4264Z" fill="#E9E9E9"/>
<path d="M13.1481 11.6565H12.7129L12.9305 10.9119L13.1481 11.6565Z" fill="#E9E9E9"/>
<path d="M12.9975 11.8866L12.863 11.4264L13.5672 11.4264L12.9975 11.8866Z" fill="#E9E9E9"/>
<path d="M12.7541 11.7988L13.1062 11.5143L13.324 12.259L12.7541 11.7988Z" fill="#E9E9E9"/>
<path d="M15.4763 11.5144L15.8284 11.7989L15.2585 12.259L15.4763 11.5144Z" fill="#E9E9E9"/>
<path d="M15.7197 11.4264L15.5852 11.8866L15.0155 11.4264L15.7197 11.4264Z" fill="#E9E9E9"/>
<path d="M15.8703 11.6565H15.4351L15.6527 10.9119L15.8703 11.6565Z" fill="#E9E9E9"/>
<path d="M15.7197 11.8866L15.5852 11.4264L16.2894 11.4264L15.7197 11.8866Z" fill="#E9E9E9"/>
<path d="M15.4763 11.7988L15.8284 11.5143L16.0461 12.259L15.4763 11.7988Z" fill="#E9E9E9"/>
<path d="M0.611816 20.2968H36.6478V22.1426H0.611816V20.2968Z" fill="#E9E9E9"/>
<path d="M0.611816 22.1426H36.6478V23.9884H0.611816V22.1426Z" fill="#FF4B1E"/>
</g>
<defs>
<clipPath id="clip0_3001_201">
<rect width="36" height="24" fill="white" transform="translate(0.626953)"/>
</clipPath>
</defs>
</svg>
