<svg width="23" height="21" viewBox="0 0 23 21" fill="none" xmlns="http://www.w3.org/2000/svg">
<path d="M23 10.5C23 4.97335 18.3917 0.5 12.6964 0.5H10.3036C4.60912 0.5 0 4.97248 0 10.5C0 11.6369 0.19577 12.7536 0.581963 13.819C0.64373 13.9893 0.835996 14.0788 1.0116 14.0189C1.18711 13.959 1.27933 13.7724 1.21761 13.602C0.856795 12.6064 0.673828 11.5628 0.673828 10.5C0.673828 5.33474 4.98071 1.15397 10.3036 1.15397C15.6257 1.15397 19.9333 5.334 19.9333 10.5C19.9333 15.6653 15.6264 19.846 10.3036 19.846C6.63734 19.846 3.36123 17.8428 1.73187 14.7633C1.64684 14.6026 1.44361 14.5392 1.27825 14.6217C1.11271 14.7043 1.04744 14.9013 1.13244 15.062C2.87837 18.3618 6.38704 20.5 10.3036 20.5H12.6964C18.4038 20.5 23 16.0054 23 10.5ZM19.1593 17.4278H17.7334C18.2713 16.885 18.7388 16.2935 19.1316 15.6635H20.7241C20.299 16.285 19.7798 16.8823 19.1593 17.4278ZM19.5056 15.0095C19.7999 14.4451 20.0373 13.8548 20.2155 13.2453H21.906C21.713 13.8579 21.4547 14.4485 21.1353 15.0095H19.5056ZM22.0842 12.5913H20.382C20.5076 12.0158 20.5814 11.4259 20.6011 10.827H22.3197C22.2989 11.4211 22.2206 12.0118 22.0842 12.5913ZM22.3197 10.173H20.6011C20.5814 9.57402 20.5076 8.98422 20.3821 8.40872H22.0853C22.2198 8.98291 22.2986 9.57306 22.3197 10.173ZM21.9041 7.75475H20.2155C20.0373 7.14529 19.8 6.55488 19.5056 5.99046H21.1328C21.4523 6.55222 21.7108 7.14355 21.9041 7.75475ZM20.7264 5.33648H19.1316C18.7388 4.70649 18.2713 4.11499 17.7334 3.57219H19.1605C19.7515 4.09284 20.2789 4.68391 20.7264 5.33648ZM18.3298 2.91826H17.023C16.2058 2.2339 15.2947 1.68613 14.3198 1.28577C15.771 1.52351 17.137 2.0797 18.3298 2.91826ZM17.023 18.0817H18.3298C17.137 18.9203 15.771 19.4764 14.3199 19.7142C15.2947 19.3139 16.2057 18.7661 17.023 18.0817Z" fill="#FFB846"/>
<path d="M15.8074 5.35118C15.936 5.48158 16.1494 5.48603 16.2837 5.36108C16.4181 5.23617 16.4227 5.02916 16.2939 4.89876C14.7009 3.28515 12.5559 2.39648 10.2544 2.39648C5.64254 2.39648 1.89062 6.03794 1.89062 10.5138C1.89062 14.9897 5.64254 18.6311 10.2544 18.6311C14.8662 18.6311 18.6181 14.9897 18.6181 10.5138C18.6181 8.88242 18.1213 7.30896 17.1813 5.96369C17.0769 5.81424 16.8674 5.77513 16.7134 5.87658C16.5594 5.97791 16.5192 6.18125 16.6237 6.3307C17.4876 7.56728 17.9443 9.01378 17.9443 10.5138C17.9443 14.6291 14.4946 17.9771 10.2543 17.9771C6.01409 17.9771 2.56441 14.6291 2.56441 10.5138C2.56441 6.3985 6.01409 3.05046 10.2543 3.05046C12.3705 3.05046 14.3426 3.86758 15.8074 5.35118Z" fill="#FFB846"/>
<path d="M11.9379 6.11352C11.9264 6.10818 11.9133 6.1063 11.9006 6.10813C11.8878 6.10997 11.876 6.11545 11.8668 6.12378L11.1195 6.80135L10.2936 5.48098C10.2876 5.47298 10.2795 5.46645 10.2702 5.46194C10.2608 5.45743 10.2504 5.45508 10.2398 5.45508C10.2292 5.45508 10.2188 5.45743 10.2094 5.46194C10.2001 5.46645 10.192 5.47298 10.186 5.48098L9.36009 6.80135L8.61279 6.12378C8.60358 6.11517 8.59165 6.10948 8.57871 6.10752C8.56576 6.10557 8.55248 6.10745 8.54077 6.11291C8.52907 6.11836 8.51955 6.1271 8.51359 6.13787C8.50763 6.14863 8.50554 6.16086 8.50762 6.17279L8.75507 7.70002C8.75731 7.71361 8.7648 7.726 8.77617 7.7349C8.78754 7.7438 8.80202 7.74862 8.81693 7.74846H11.6626C11.6776 7.74862 11.692 7.7438 11.7034 7.7349C11.7148 7.726 11.7223 7.71361 11.7245 7.70002L11.972 6.17279C11.9738 6.16087 11.9715 6.14871 11.9654 6.13806C11.9593 6.12741 11.9497 6.11882 11.9379 6.11352Z" fill="#FFB846"/>
<path d="M15.1236 7.74805L12.2359 15.3927L10.4523 10.9887L8.32905 15.3927L5.35645 7.74805H7.05508L8.58384 11.9858L9.68795 9.24373H11.2167L12.2359 11.8196L13.5099 7.74805H15.1236Z" fill="#FFB846"/>
</svg>
